HIERARCHY
ROOT Hips
{
	OFFSET 0.000000 0.000000 0.000000 
	CHANNELS 6 Xposition Yposition Zposition Zrotation Yrotation Xrotation
	JOINT LeftUpLeg
	{
		OFFSET 1.363060 -1.794630 0.839290 
		CHANNELS 3 Zrotation Yrotation Xrotation
		JOINT LeftLeg
		{
			OFFSET 2.448110 -6.726130 0.000000 
			CHANNELS 3 Zrotation Yrotation Xrotation
			JOINT LeftFoot
			{
				OFFSET 2.562200 -7.039590 0.000000 
				CHANNELS 3 Zrotation Yrotation Xrotation
				JOINT LeftToeBase
				{
					OFFSET 0.157640 -0.433110 2.322550 
					CHANNELS 3 Zrotation Yrotation Xrotation
					End Site
					{
						OFFSET 0.000000 0.000000 0.000000 
					}
				}
			}
		}
	}
	JOINT RightUpLeg
	{
		OFFSET -1.305520 -1.794630 0.839290 
		CHANNELS 3 Zrotation Yrotation Xrotation
		JOINT RightLeg
		{
			OFFSET -2.542530 -6.985550 0.000000 
			CHANNELS 3 Zrotation Yrotation Xrotation
			JOINT RightFoot
			{
				OFFSET -2.568260 -7.056230 0.000000 
				CHANNELS 3 Zrotation Yrotation Xrotation
				JOINT RightToeBase
				{
					OFFSET -0.164730 -0.452590 2.363150 
					CHANNELS 3 Zrotation Yrotation Xrotation
					End Site
					{
						OFFSET 0.000000 0.000000 0.000000 
					}
				}
			}
		}
	}
	JOINT Spine
	{
		OFFSET 0.028270 2.035590 -0.193380 
		CHANNELS 3 Zrotation Yrotation Xrotation
		JOINT Spine1
		{
			OFFSET 0.056720 2.048850 -0.042750 
			CHANNELS 3 Zrotation Yrotation Xrotation
			JOINT Neck1
			{
				OFFSET -0.054170 1.746240 0.172020 
				CHANNELS 3 Zrotation Yrotation Xrotation
				JOINT Head
				{
					OFFSET 0.104070 1.761360 -0.123970 
					CHANNELS 3 Zrotation Yrotation Xrotation
					End Site
					{
						OFFSET 0.000000 0.000000 0.000000 
					}
				}
			}
			JOINT LeftArm
			{
				OFFSET 3.362410 1.200890 -0.311210 
				CHANNELS 3 Zrotation Yrotation Xrotation
				JOINT LeftForeArm
				{
					OFFSET 4.983000 -0.000000 -0.000000 
					CHANNELS 3 Zrotation Yrotation Xrotation
					JOINT LeftHand
					{
						OFFSET 3.483560 -0.000000 -0.000000 
						CHANNELS 3 Zrotation Yrotation Xrotation
						JOINT LeftHandIndex1
						{
							OFFSET 0.715260 -0.000000 -0.000000 
							CHANNELS 3 Zrotation Yrotation Xrotation
							End Site
							{
								OFFSET 0.000000 0.000000 0.000000 
							}
						}
					}
				}
			}
			JOINT RightArm
			{
				OFFSET -3.136600 1.374050 -0.404650 
				CHANNELS 3 Zrotation Yrotation Xrotation
				JOINT RightForeArm
				{
					OFFSET -5.241900 -0.000000 -0.000000 
					CHANNELS 3 Zrotation Yrotation Xrotation
					JOINT RightHand
					{
						OFFSET -3.444170 -0.000000 -0.000000 
						CHANNELS 3 Zrotation Yrotation Xrotation
						JOINT RightHandIndex1
						{
							OFFSET -0.622530 -0.000000 -0.000000 
							CHANNELS 3 Zrotation Yrotation Xrotation
							End Site
							{
								OFFSET 0.000000 0.000000 0.000000 
							}
						}
					}
				}
			}
		}
	}
}
MOTION
Frames: 13
Frame Time: 0.041667
-0.349663 17.450180 -4.775332 -1.440087 -11.689985 22.105583 -11.748934 1.436263 -46.690313 -1.912376 6.919301 15.543942 -0.480647 7.584099 14.982661 0.986000 -6.320200 -17.716300 12.846721 -1.280821 -4.013331 0.314442 -6.910462 21.396829 -3.094330 24.733813 11.235842 -0.051600 1.465800 -4.031500 -0.156685 5.844885 -8.710162 -1.302012 3.491481 0.382056 3.287400 -1.270745 11.144210 -0.243800 -0.412600 4.115800 -100.209747 27.814516 -14.440708 2.698410 -12.470369 -0.156683 -1.289189 0.031724 36.932053 -7.125000 0.000000 0.000000 92.097389 8.833511 36.249163 -39.621987 52.915524 -19.033494 0.493519 -0.717789 -15.850121 7.125000 0.000000 0.000000 
-0.348458 17.445579 -4.511661 -1.524117 -11.597858 22.240579 -11.000640 0.395959 -46.907442 -1.646859 7.622118 17.319579 -0.439048 7.662755 15.734379 0.546600 -4.736400 -13.158400 12.839542 -0.611251 -3.605423 0.263932 -7.135946 22.137047 -3.018380 23.808944 12.478599 -0.247300 3.199700 -8.835300 -0.189907 5.814902 -8.784450 -1.402104 3.466003 0.247630 3.500664 -1.364103 11.292712 -0.130200 -0.447200 4.329000 -100.089026 27.557102 -17.035781 2.541605 -11.975724 -0.104450 -1.297959 0.090131 38.934135 -7.125000 0.000000 0.000000 92.365992 8.173184 36.009810 -39.485957 52.837157 -18.923945 0.495653 -0.723377 -15.577090 7.125000 0.000000 0.000000 
-0.327864 17.424656 -4.234516 -1.056773 -10.215413 21.841809 -10.880587 -1.378070 -46.626555 -1.428516 8.293418 19.125649 -0.133755 6.667173 16.315249 0.369000 -3.901800 -10.800700 12.817356 -1.237529 -3.355779 0.099413 -7.534703 23.485239 -2.872333 22.707349 14.979537 -0.202200 2.895200 -7.987000 -0.167232 5.169557 -8.822532 -1.607435 3.113953 0.042774 3.702260 -1.418450 11.360227 0.012100 -0.469100 4.442800 -100.159444 27.282601 -20.490488 2.389105 -11.454117 -0.069314 -1.286778 0.166104 41.486711 -7.125000 0.000000 0.000000 92.659542 7.311955 35.797457 -39.264422 52.720616 -18.749385 0.499018 -0.731068 -15.172545 7.125000 0.000000 0.000000 
-0.308803 17.389931 -3.942801 0.584917 -7.847062 20.609156 -11.958617 -3.963780 -45.536335 -1.255101 8.917020 20.914726 0.196839 5.296924 16.526206 0.225400 -3.055800 -8.434100 12.182252 -2.799696 -2.795233 -0.253225 -8.125824 25.457492 -2.788795 20.780128 16.953490 -0.202500 2.897700 -7.994000 -0.192249 4.056447 -8.764157 -1.723487 2.507101 -0.173304 3.933797 -1.563318 11.377928 0.129300 -0.529300 4.511400 -100.006529 26.935104 -24.062909 2.253123 -10.961097 -0.033786 -1.275340 0.232591 44.979069 -7.125000 0.000000 0.000000 93.091671 6.239079 35.348835 -39.166224 52.673748 -18.663339 0.503947 -0.740709 -14.854410 7.125000 0.000000 0.000000 
-0.334436 17.382920 -3.676720 1.407991 -8.218023 20.490370 -12.695857 -4.324070 -45.682978 -1.009485 9.461490 22.491043 0.217102 4.896777 16.172617 0.123700 -2.267400 -6.245200 11.318156 -1.858957 -3.321831 -0.546417 -8.825900 27.661752 -2.764014 18.668804 20.403991 -0.185200 2.771700 -7.643700 -0.332426 4.190998 -8.799988 -1.406732 2.576138 -0.322408 4.200281 -1.796003 11.338356 0.232800 -0.630400 4.548400 -99.695964 26.346625 -28.085394 2.091877 -10.388812 -0.006356 -1.244942 0.299629 49.290969 -7.125000 0.000000 0.000000 93.487768 5.126628 34.808373 -39.121815 52.641572 -18.626253 0.496501 -0.740517 -14.864838 7.125000 0.000000 0.000000 
-0.343967 17.382591 -3.408996 1.985088 -7.878121 20.295619 -13.374117 -4.897588 -45.566636 -0.765562 9.952672 23.982528 0.255165 4.261781 15.404280 0.153700 -2.526500 -6.963100 10.822032 -1.743109 -4.219811 -0.965135 -9.632759 30.191163 -2.778753 16.794650 24.311827 -0.138400 2.398100 -6.607300 -0.397487 4.052624 -8.821363 -1.216291 2.503293 -0.467355 4.507748 -1.986650 11.208982 0.403400 -0.718600 4.455100 -99.509528 25.690205 -32.676435 1.941179 -9.779391 0.018110 -1.204163 0.380382 53.647113 -7.125000 0.000000 0.000000 93.817514 3.883031 34.301437 -39.141686 52.656895 -18.640784 0.480877 -0.736688 -14.903950 7.125000 0.000000 0.000000 
-0.348020 17.386206 -3.147406 2.351697 -7.413925 20.199687 -13.860999 -5.518412 -45.473082 -0.507389 10.423600 25.440004 0.312370 3.522316 14.512839 0.185700 -2.775100 -7.653300 10.495338 -1.675604 -5.342601 -1.504259 -10.511230 32.964153 -2.829267 15.718770 27.442998 -0.164200 2.610700 -7.196600 -0.427667 3.839048 -8.845953 -1.109376 2.387692 -0.578746 4.772617 -2.116143 11.102988 0.554300 -0.777400 4.407500 -99.404484 24.989039 -36.478158 1.873358 -9.368949 0.034455 -1.171118 0.442731 57.082386 -7.125000 0.000000 0.000000 94.212164 2.766634 33.774117 -38.976721 52.574435 -18.530337 0.452801 -0.735523 -14.867362 7.125000 0.000000 0.000000 
-0.353168 17.392341 -2.880119 2.772605 -7.039094 19.887466 -14.439997 -5.970985 -45.107605 -0.266332 10.833741 26.780778 0.409896 2.614151 13.572492 0.086100 -1.893100 -5.210300 10.105475 -1.551460 -6.198350 -2.130429 -11.378177 35.825282 -2.853986 15.680765 29.467339 -0.269700 3.340900 -9.229200 -0.458637 3.668656 -8.830681 -0.944920 2.295602 -0.626049 4.943111 -2.219077 11.055782 0.636200 -0.822200 4.408700 -99.318384 24.302980 -39.766801 1.861025 -9.117137 0.050509 -1.143562 0.515694 60.338620 -7.125000 0.000000 0.000000 94.536477 1.712378 33.334857 -38.467295 52.293532 -18.170193 0.425904 -0.741776 -15.311264 7.125000 0.000000 0.000000 
-0.356783 17.400995 -2.615900 3.136540 -7.055769 19.491532 -15.092816 -5.968679 -44.603857 -0.046226 11.167490 27.923817 0.439972 2.045906 12.625727 0.029100 -1.100600 -3.025700 9.661401 -1.052637 -6.921157 -2.816832 -12.235159 38.749737 -2.882290 15.765502 31.398581 -0.290100 3.463500 -9.572000 -0.494520 3.641339 -8.794384 -0.692265 2.287335 -0.678072 5.172234 -2.232880 10.917253 0.782600 -0.829600 4.298700 -99.359565 23.754450 -41.774053 1.909583 -9.102453 0.040781 -1.113064 0.563483 62.218650 -7.125000 0.000000 0.000000 94.729928 0.578014 33.040984 -37.905024 51.975998 -17.763681 0.418269 -0.748513 -15.951668 7.125000 0.000000 0.000000 
-0.362370 17.411511 -2.365922 3.489042 -7.550319 19.302210 -15.776289 -5.675375 -44.322690 0.158593 11.450634 28.901324 0.388088 1.872864 11.588315 0.028200 -1.084400 -2.981100 9.083318 -0.078280 -7.850182 -3.573245 -13.079075 41.677221 -2.961952 14.979287 33.509048 -0.256600 3.258900 -9.000400 -0.549737 3.727733 -8.808015 -0.427043 2.340982 -0.801068 5.397419 -2.175667 10.929220 0.923000 -0.794900 4.370200 -99.409055 23.225536 -41.998345 1.956733 -9.176354 -0.007317 -1.072430 0.531986 61.818358 -7.125000 0.000000 0.000000 95.029179 -0.437355 32.661724 -37.274313 51.603602 -17.312837 0.412397 -0.754507 -16.114821 7.125000 0.000000 0.000000 
-0.367300 17.429914 -2.121202 3.947265 -8.009601 19.117649 -16.597331 -5.366486 -44.065335 0.338321 11.690490 29.775936 0.390176 1.500137 10.503818 0.048000 -1.413900 -3.888500 8.446207 0.782103 -8.931612 -4.457576 -13.919896 44.647638 -3.098136 12.940752 35.663951 -0.244600 3.182700 -8.787900 -0.618812 3.772240 -8.842975 -0.251245 2.365261 -0.976893 5.486725 -2.150387 11.030277 0.945700 -0.770700 4.529800 -99.350824 22.616276 -41.901068 1.982543 -9.191657 -0.031012 -1.048679 0.507690 61.147024 -7.125000 0.000000 0.000000 95.469290 -1.475266 32.274552 -36.507762 51.144469 -16.772766 0.392903 -0.760512 -16.170803 7.125000 0.000000 0.000000 
-0.364999 17.456095 -1.874290 4.117236 -8.325958 18.953050 -17.168290 -4.947798 -43.700050 0.486997 11.870352 30.481867 0.433763 1.040736 9.554544 0.048700 -1.424700 -3.918300 8.173987 1.578481 -10.088985 -5.458702 -14.765523 47.713252 -3.168473 10.382662 37.004276 -0.200900 2.885900 -7.961100 -0.673285 3.820282 -8.831823 -0.259713 2.372517 -0.992996 5.527115 -2.149253 10.968389 0.950200 -0.766500 4.530200 -99.324033 22.012049 -40.051547 2.063544 -9.453841 -0.065729 -1.037919 0.471175 58.937987 -7.125000 0.000000 0.000000 95.879109 -2.368035 32.052318 -35.529286 50.563985 -16.096059 0.369962 -0.766937 -16.169428 7.125000 0.000000 0.000000 
-0.356893 17.475594 -1.630337 4.214304 -8.642498 18.944417 -17.671637 -4.527626 -43.330191 0.594882 11.982188 30.977469 0.460119 0.714973 8.613679 0.020900 -0.932400 -2.562800 7.953296 2.349692 -11.378728 -6.445508 -15.531413 50.725353 -3.070435 8.782841 36.883128 -0.160300 2.579400 -7.109900 -0.749061 3.887428 -8.823098 -0.434362 2.370067 -0.918556 5.588333 -2.080406 10.952559 0.979000 -0.727800 4.515800 -99.247262 21.563948 -37.174940 2.185798 -9.875040 -0.132626 -1.012912 0.393662 55.719118 -7.125000 0.000000 0.000000 96.342658 -3.077383 31.872333 -34.386405 49.875586 -15.320073 0.350844 -0.773497 -16.057170 7.125000 0.000000 0.000000 
